<svg width="14" height="12" viewBox="0 0 14 12" version="1.1" xmlns="http://www.w3.org/2000/svg" xmlns:xlink="http://www.w3.org/1999/xlink">
<title>Vector</title>
<desc>Created using Figma</desc>
<g id="Canvas" transform="translate(-7184 1307)">
<g id="Vector">
<use xlink:href="#path0_fill" transform="translate(7184 -1306.37)"/>
</g>
</g>
<defs>
<path id="path0_fill" d="M 12.4103 0.000373888C 12.5532 -0.00212742 12.6949 0.0260329 12.8261 0.0829583C 12.9572 0.139884 13.0745 0.224249 13.1703 0.330372C 13.277 0.434124 13.3613 0.558633 13.4181 0.69622C 13.4748 0.833808 13.5028 0.981559 13.5003 1.13037C 13.5035 1.27839 13.4768 1.42554 13.4219 1.56301C 13.3669 1.70047 13.2847 1.82543 13.1803 1.93037C 13.0834 2.03779 12.9644 2.12292 12.8315 2.17989C 12.6986 2.23686 12.5548 2.26432 12.4103 2.26037L 1.09026 2.26037C 0.94736 2.26287 0.80558 2.23471 0.674479 2.17779C 0.543379 2.12086 0.426003 2.0365 0.330264 1.93037C 0.223555 1.82662 0.139224 1.70211 0.082469 1.56453C 0.0257141 1.42694 -0.00226221 1.27918 0.000264179 1.13037C -0.00298033 0.982352 0.0236891 0.835204 0.0786753 0.697739C 0.133661 0.560273 0.215832 0.435321 0.320264 0.330372C 0.417112 0.222956 0.536106 0.137829 0.669042 0.0808564C 0.801977 0.0238841 0.945689 -0.00357487 1.09026 0.000373888L 12.4103 0.000373888ZM 12.4103 4.50037C 12.5532 4.49787 12.6949 4.52603 12.8261 4.58296C 12.9572 4.63988 13.0745 4.72425 13.1703 4.83037C 13.277 4.93412 13.3613 5.05863 13.4181 5.19622C 13.4748 5.33381 13.5028 5.48156 13.5003 5.63037C 13.5035 5.77839 13.4768 5.92554 13.4219 6.06301C 13.3669 6.20047 13.2847 6.32543 13.1803 6.43037C 13.0834 6.53779 12.9644 6.62292 12.8315 6.67989C 12.6986 6.73686 12.5548 6.76432 12.4103 6.76037L 1.09026 6.76037C 0.94736 6.76287 0.80558 6.73471 0.674479 6.67779C 0.543379 6.62086 0.426003 6.5365 0.330264 6.43037C 0.223555 6.32662 0.139224 6.20211 0.082469 6.06453C 0.0257141 5.92694 -0.00226221 5.77918 0.000264179 5.63037C -0.00298033 5.48235 0.0236891 5.3352 0.0786753 5.19774C 0.133661 5.06027 0.215832 4.93532 0.320264 4.83037C 0.417112 4.72296 0.536106 4.63783 0.669042 4.58086C 0.801977 4.52388 0.945689 4.49643 1.09026 4.50037L 12.4103 4.50037ZM 12.4103 9.00037C 12.5532 8.99787 12.6949 9.02603 12.8261 9.08296C 12.9572 9.13988 13.0745 9.22425 13.1703 9.33037C 13.277 9.43412 13.3613 9.55863 13.4181 9.69622C 13.4748 9.83381 13.5028 9.98156 13.5003 10.1304C 13.5035 10.2784 13.4768 10.4255 13.4219 10.563C 13.3669 10.7005 13.2847 10.8254 13.1803 10.9304C 13.0834 11.0378 12.9644 11.1229 12.8315 11.1799C 12.6986 11.2369 12.5548 11.2643 12.4103 11.2604L 1.09026 11.2604C 0.94736 11.2629 0.80558 11.2347 0.674479 11.1778C 0.543379 11.1209 0.426003 11.0365 0.330264 10.9304C 0.223555 10.8266 0.139224 10.7021 0.082469 10.5645C 0.0257141 10.4269 -0.00226221 10.2792 0.000264179 10.1304C -0.00298033 9.98235 0.0236891 9.8352 0.0786753 9.69774C 0.133661 9.56027 0.215832 9.43532 0.320264 9.33037C 0.417112 9.22296 0.536106 9.13783 0.669042 9.08086C 0.801977 9.02388 0.945689 8.99643 1.09026 9.00037L 12.4103 9.00037Z"/>
</defs>
</svg>
